<?xml version="1.0" encoding="UTF-8"?>
<!DOCTYPE svg PUBLIC "-//W3C//DTD SVG 1.1//EN" "http://www.w3.org/Graphics/SVG/1.1/DTD/svg11.dtd">
<!-- Creator: CorelDRAW 2020 (64 Bit) -->
<svg xmlns="http://www.w3.org/2000/svg" xml:space="preserve" width="233.12mm" height="125.722mm" version="1.1" style="shape-rendering:geometricPrecision; text-rendering:geometricPrecision; image-rendering:optimizeQuality; fill-rule:evenodd; clip-rule:evenodd"
viewBox="0 0 98822.4 53295"
 xmlns:xlink="http://www.w3.org/1999/xlink"
 xmlns:xodm="http://www.corel.com/coreldraw/odm/2003">
 <defs>
  <style type="text/css">
   <![CDATA[
    .fil0 {fill:white}
   ]]>
  </style>
 </defs>
 <g id="Camada_x0020_1">
  <metadata id="CorelCorpID_0Corel-Layer"/>
  <path class="fil0" d="M57671.4 69.6c-9620.8,6.3 -19241.7,0 -28862.5,0 -2173.7,0 -27334.8,-124.2 -28786.6,30.4 -248.8,2357.2 1650.4,5456.5 2695.6,6727.9 4656.8,5664.3 7875.3,4841 14276.8,4841 15740.7,0 31723.4,-149.6 47406.3,64.4 6372.5,86.9 11207.5,30.5 15719.4,3380.4 3566.8,2648.2 5267.7,7929.6 4696,14115.6 -913.9,9887.6 -7840.2,12287.2 -16228.1,12397 -2783.3,36.4 -6725.6,218.8 -9399.3,-26.4 20.8,-2477.3 124,-14410.4 -49.8,-15978.5 -652.3,-5887.4 -7169.4,-4898.5 -11038.8,-4898.5 -2285.1,0 -30457.1,-154.6 -31900.3,38.5 -360.4,2989.5 2865,7184.7 4163.7,8344.2 2936.9,2622.1 4311.9,3223.9 9491.9,3224.2 4237.1,0.2 8474.4,3.5 12711.5,-0.1 4346.9,-3.6 3342.9,916.9 3422.1,9294.9l-14925.5 21.4c-378.4,3753.1 3434.9,7854.4 5199.3,9250 3822.6,3023.4 6522.8,2330.6 12136.5,2330.6 4835.3,0 9670.7,0 14506,0 8105.5,0 18465.7,817.8 25347.1,-3474.2 10225.1,-6377.4 12246.6,-20750.7 9385.5,-31825.4 -1987.1,-7691.9 -6487.2,-13178.7 -13228,-15788.8 -7011,-2714.7 -18484.9,-2074 -26738.7,-2068.6z"/>
 </g>
</svg>
