<svg height="682pt" viewBox="-21 -21 682 682.66799" width="682pt" xmlns="http://www.w3.org/2000/svg"><path d="m577.570312 244.914062c-2.332031 2.324219-3.660156 5.546876-3.660156 8.835938s1.328125 6.511719 3.660156 8.835938c2.324219 2.328124 5.539063 3.664062 8.839844 3.664062 3.285156 0 6.496094-1.335938 8.835938-3.664062 2.324218-2.324219 3.648437-5.546876 3.648437-8.835938 0-3.300781-1.324219-6.511719-3.648437-8.835938-2.339844-2.324218-5.550782-3.664062-8.835938-3.664062-3.300781 0-6.515625 1.339844-8.839844 3.664062zm0 0"/><path d="m576.105469 455.144531c18.617187-15.605469 30.480469-39.011719 30.480469-65.144531 0-46.867188-38.132813-85-85-85h-41.4375v-123.875l93.753906-39.066406v61.691406c0 6.90625 5.601562 12.5 12.5 12.5 6.90625 0 12.5-5.59375 12.5-12.5v-80.441406c0-5.050782-3.03125-9.601563-7.6875-11.539063l-265.914063-110.804687c-3.078125-1.285156-6.539062-1.285156-9.613281 0l-265.914062 110.804687c-4.660157 1.9375-7.691407 6.488281-7.691407 11.539063 0 5.042968 3.03125 9.59375 7.691407 11.535156l111.0625 46.28125v123.875h-114.25c-6.90625 0-12.5 5.597656-12.5 12.5v132.5h-21.25c-6.90625 0-12.5 5.597656-12.5 12.5v165c0 6.90625 5.59375 12.5 12.5 12.5h532.5c52.382812 0 95-42.617188 95-95 0-41.613281-26.90625-77.039062-64.230469-89.855469zm5.480469-65.144531c0 33.085938-26.914063 60-60 60h-113.605469c15.351562-15.382812 24.855469-36.605469 24.855469-60 0-16.53125-4.699219-32.304688-13.425782-45.859375l49.976563-14.140625h52.199219c33.085937 0 60 26.914062 60 60zm-261.089844-363.957031 203.414062 84.765625h-203.414062c-6.90625 0-12.5 5.59375-12.5 12.5 0 6.902344 5.59375 12.5 12.5 12.5h203.414062l-203.414062 84.765625-233.417969-97.265625zm-4.808594 219.609375c1.535156.636718 3.171875.960937 4.808594.960937 1.628906 0 3.265625-.324219 4.804687-.960937l129.847657-54.113282v116.507813l-133.285157 37.722656-136.027343-37.769531v-116.460938zm-256.601562 156.847656h171.25c6.902343 0 12.5-5.59375 12.5-12.5 0-6.902344-5.597657-12.5-12.5-12.5h-171.25v-47.5h112.546874l146.917969 40.796875c1.09375.304687 2.21875.453125 3.347657.453125 1.140624 0 2.289062-.15625 3.402343-.472656l68.472657-19.375c9.101562 10.792968 14.0625 24.292968 14.0625 38.597656 0 33.082031-26.914063 60-60 60h-288.75zm-33.75 212.5v-30h275c6.902343 0 12.5-5.59375 12.5-12.5 0-6.902344-5.597657-12.5-12.5-12.5h-275v-30h151.25c6.902343 0 12.5-5.59375 12.5-12.5 0-6.902344-5.597657-12.5-12.5-12.5h-151.25v-30h280c38.597656 0 70 31.402344 70 70 0 38.601562-31.402344 70-70 70zm520 0h-175.855469c18.949219-17.375 30.855469-42.324219 30.855469-70s-11.90625-52.621094-30.855469-70h175.855469c38.597656 0 70 31.402344 70 70 0 38.601562-31.402344 70-70 70zm0 0"/><path d="m234.925781 505c-3.308593 0-6.515625 1.339844-8.839843 3.664062-2.339844 2.324219-3.660157 5.550782-3.660157 8.835938 0 3.289062 1.320313 6.515625 3.660157 8.839844 2.324218 2.324218 5.546874 3.660156 8.839843 3.660156 3.285157 0 6.507813-1.335938 8.832031-3.660156 2.324219-2.324219 3.667969-5.550782 3.667969-8.839844 0-3.285156-1.339843-6.511719-3.667969-8.835938-2.324218-2.324218-5.546874-3.664062-8.832031-3.664062zm0 0"/></svg>