<svg id="Grupo_87" data-name="Grupo 87" xmlns="http://www.w3.org/2000/svg" viewBox="0 0 225.727 19.76"><path id="Caminho_1" data-name="Caminho 1" d="M215.364,14.808,209.258,0H200.7V19.76h4.856V3.942l6.539,15.818h5.914l6.635-15.818V19.76h4.712V0h-7.693Z" transform="translate(-104.207 0)" fill="#fff"></path><path id="Caminho_2" data-name="Caminho 2" d="M113.264,14.183c-1.154.865-2.981,1.3-5.529,1.3h-3.606V4.327h3.606a8.851,8.851,0,0,1,5.433,1.394,5.028,5.028,0,0,1,1.827,4.231,5.046,5.046,0,0,1-1.731,4.231m7.548-4.087A11.168,11.168,0,0,0,119.658,4.9a8.23,8.23,0,0,0-3.317-3.462A10.46,10.46,0,0,0,113.216.337,24.063,24.063,0,0,0,108.552,0H98.6V19.76h10a25.36,25.36,0,0,0,5-.337,9.238,9.238,0,0,0,2.933-1.058,7.56,7.56,0,0,0,3.173-3.317,10.046,10.046,0,0,0,1.106-4.952" transform="translate(-51.195 0)" fill="#fff"></path><path id="Caminho_3" data-name="Caminho 3" d="M152.164,11.923l3.7-7.6,3.366,7.6ZM152.789,0,142.5,19.76h5.962l1.827-3.99h10.77l1.731,3.99h6.394L159.472,0Z" transform="translate(-73.989 0)" fill="#fff"></path><path id="Caminho_4" data-name="Caminho 4" d="M440.908,7.885a7.77,7.77,0,0,1-3.414.529h-3.51V3.8h3.51a7.919,7.919,0,0,1,3.462.481,1.869,1.869,0,0,1,.865,1.779,1.89,1.89,0,0,1-.914,1.827m3.462,2.933a5.239,5.239,0,0,0,3.125-5c0-1.779-.769-4.183-2.356-5A13.8,13.8,0,0,0,439.369,0H428.6V19.76h5.433V12.212c1.587,0,3.558,0,5.481-.192l2.5,7.741h6.25Z" transform="translate(-222.537 0)" fill="#fff"></path><path id="Caminho_5" data-name="Caminho 5" d="M393.433,11.683H404.25V7.644H393.433V4.231h11.395V0H388V19.76h17.116V15.529H393.433Z" transform="translate(-201.457 0)" fill="#fff"></path><path id="Caminho_6" data-name="Caminho 6" d="M274.716,8.173,269.235,0H262.6l8.943,12.645V19.76h5.577V12.741L286.062,0h-6.106Z" transform="translate(-136.347 0)" fill="#fff"></path><path id="Caminho_7" data-name="Caminho 7" d="M318.777,0H313.2V19.76h15.962V15.481H318.777Z" transform="translate(-162.619 0)" fill="#fff"></path><path id="Caminho_8" data-name="Caminho 8" d="M356.177,0H350.6V19.76h15.962V15.481H356.177Z" transform="translate(-182.038 0)" fill="#fff"></path><path id="Caminho_9" data-name="Caminho 9" d="M33.991,4.9A7.449,7.449,0,0,0,28.558.337,16.914,16.914,0,0,0,24.664,0H0V.048C0,1.875,2.067,4.327,3.894,4.327H21.01l2.933.048A6.568,6.568,0,0,1,28.51,5.769,5.486,5.486,0,0,1,30.049,10a5.375,5.375,0,0,1-1.442,4.183c-.962.865-2.5,1.3-4.664,1.3H20.914V9.712h0a2.031,2.031,0,0,0-2.019-2.019H5.721v.048c0,1.827,2.067,4.279,3.894,4.279h5.914a.934.934,0,0,1,.529.192.814.814,0,0,1,.24.529v2.692H10.962v.048c0,1.827,2.067,4.279,3.894,4.279h9.808a17.8,17.8,0,0,0,4.183-.337A7.031,7.031,0,0,0,31.3,18.366a7.438,7.438,0,0,0,2.692-3.317,12.378,12.378,0,0,0,.913-5A12.439,12.439,0,0,0,33.991,4.9" transform="translate(0 0)" fill="#fff"></path></svg>